<mxfile host="Electron" agent="Mozilla/5.0 (Windows NT 10.0; Win64; x64) AppleWebKit/537.36 (KHTML, like Gecko) draw.io/24.7.8 Chrome/128.0.6613.36 Electron/32.0.1 Safari/537.36" version="24.7.8">
  <diagram name="Page-1" id="aHpL9JUCcw7XkOO8sHA8">
    <mxGraphModel dx="1938" dy="541" grid="1" gridSize="10" guides="1" tooltips="1" connect="1" arrows="1" fold="1" page="1" pageScale="1" pageWidth="850" pageHeight="1100" math="0" shadow="0">
      <root>
        <mxCell id="0" />
        <mxCell id="1" parent="0" />
        <mxCell id="iJkTXu9Yfgoa_Q7Wtm8Q-4" value="" style="edgeStyle=orthogonalEdgeStyle;rounded=0;orthogonalLoop=1;jettySize=auto;html=1;" edge="1" parent="1" source="iJkTXu9Yfgoa_Q7Wtm8Q-1" target="iJkTXu9Yfgoa_Q7Wtm8Q-3">
          <mxGeometry relative="1" as="geometry" />
        </mxCell>
        <mxCell id="iJkTXu9Yfgoa_Q7Wtm8Q-1" value="Start" style="ellipse;whiteSpace=wrap;html=1;" vertex="1" parent="1">
          <mxGeometry x="30" y="20" width="120" height="80" as="geometry" />
        </mxCell>
        <mxCell id="iJkTXu9Yfgoa_Q7Wtm8Q-6" value="" style="edgeStyle=orthogonalEdgeStyle;rounded=0;orthogonalLoop=1;jettySize=auto;html=1;" edge="1" parent="1" source="iJkTXu9Yfgoa_Q7Wtm8Q-3" target="iJkTXu9Yfgoa_Q7Wtm8Q-5">
          <mxGeometry relative="1" as="geometry" />
        </mxCell>
        <mxCell id="iJkTXu9Yfgoa_Q7Wtm8Q-3" value="Generate a random number (1-100)" style="whiteSpace=wrap;html=1;" vertex="1" parent="1">
          <mxGeometry x="30" y="190" width="120" height="60" as="geometry" />
        </mxCell>
        <mxCell id="iJkTXu9Yfgoa_Q7Wtm8Q-8" value="" style="edgeStyle=orthogonalEdgeStyle;rounded=0;orthogonalLoop=1;jettySize=auto;html=1;" edge="1" parent="1" source="iJkTXu9Yfgoa_Q7Wtm8Q-5" target="iJkTXu9Yfgoa_Q7Wtm8Q-7">
          <mxGeometry relative="1" as="geometry" />
        </mxCell>
        <mxCell id="iJkTXu9Yfgoa_Q7Wtm8Q-5" value="&amp;nbsp;prompt user&amp;nbsp; to&amp;nbsp; guess a number" style="shape=parallelogram;perimeter=parallelogramPerimeter;whiteSpace=wrap;html=1;fixedSize=1;" vertex="1" parent="1">
          <mxGeometry x="30" y="330" width="150" height="60" as="geometry" />
        </mxCell>
        <mxCell id="iJkTXu9Yfgoa_Q7Wtm8Q-10" value="" style="edgeStyle=orthogonalEdgeStyle;rounded=0;orthogonalLoop=1;jettySize=auto;html=1;" edge="1" parent="1" source="iJkTXu9Yfgoa_Q7Wtm8Q-7" target="iJkTXu9Yfgoa_Q7Wtm8Q-9">
          <mxGeometry relative="1" as="geometry" />
        </mxCell>
        <mxCell id="iJkTXu9Yfgoa_Q7Wtm8Q-7" value="User&amp;nbsp; Makes Guess" style="shape=parallelogram;perimeter=parallelogramPerimeter;whiteSpace=wrap;html=1;fixedSize=1;" vertex="1" parent="1">
          <mxGeometry x="30" y="450" width="140" height="60" as="geometry" />
        </mxCell>
        <mxCell id="iJkTXu9Yfgoa_Q7Wtm8Q-12" value="" style="edgeStyle=orthogonalEdgeStyle;rounded=0;orthogonalLoop=1;jettySize=auto;html=1;" edge="1" parent="1" source="iJkTXu9Yfgoa_Q7Wtm8Q-9" target="iJkTXu9Yfgoa_Q7Wtm8Q-11">
          <mxGeometry relative="1" as="geometry" />
        </mxCell>
        <mxCell id="iJkTXu9Yfgoa_Q7Wtm8Q-14" value="" style="edgeStyle=orthogonalEdgeStyle;rounded=0;orthogonalLoop=1;jettySize=auto;html=1;" edge="1" parent="1" source="iJkTXu9Yfgoa_Q7Wtm8Q-9" target="iJkTXu9Yfgoa_Q7Wtm8Q-13">
          <mxGeometry relative="1" as="geometry" />
        </mxCell>
        <mxCell id="iJkTXu9Yfgoa_Q7Wtm8Q-20" value="" style="edgeStyle=orthogonalEdgeStyle;rounded=0;orthogonalLoop=1;jettySize=auto;html=1;" edge="1" parent="1" source="iJkTXu9Yfgoa_Q7Wtm8Q-9" target="iJkTXu9Yfgoa_Q7Wtm8Q-13">
          <mxGeometry relative="1" as="geometry" />
        </mxCell>
        <mxCell id="iJkTXu9Yfgoa_Q7Wtm8Q-22" style="edgeStyle=orthogonalEdgeStyle;rounded=0;orthogonalLoop=1;jettySize=auto;html=1;entryX=0.5;entryY=0;entryDx=0;entryDy=0;" edge="1" parent="1" source="iJkTXu9Yfgoa_Q7Wtm8Q-9" target="iJkTXu9Yfgoa_Q7Wtm8Q-21">
          <mxGeometry relative="1" as="geometry" />
        </mxCell>
        <mxCell id="iJkTXu9Yfgoa_Q7Wtm8Q-9" value="if Guess correct&amp;nbsp;" style="rhombus;whiteSpace=wrap;html=1;" vertex="1" parent="1">
          <mxGeometry x="50" y="560" width="80" height="80" as="geometry" />
        </mxCell>
        <mxCell id="iJkTXu9Yfgoa_Q7Wtm8Q-11" value="End" style="ellipse;whiteSpace=wrap;html=1;" vertex="1" parent="1">
          <mxGeometry x="190" y="560" width="120" height="80" as="geometry" />
        </mxCell>
        <mxCell id="iJkTXu9Yfgoa_Q7Wtm8Q-26" value="" style="edgeStyle=orthogonalEdgeStyle;rounded=0;orthogonalLoop=1;jettySize=auto;html=1;" edge="1" parent="1" source="iJkTXu9Yfgoa_Q7Wtm8Q-13" target="iJkTXu9Yfgoa_Q7Wtm8Q-25">
          <mxGeometry relative="1" as="geometry" />
        </mxCell>
        <mxCell id="iJkTXu9Yfgoa_Q7Wtm8Q-13" value="is guess to high" style="rhombus;whiteSpace=wrap;html=1;" vertex="1" parent="1">
          <mxGeometry y="690" width="80" height="80" as="geometry" />
        </mxCell>
        <mxCell id="iJkTXu9Yfgoa_Q7Wtm8Q-19" style="edgeStyle=orthogonalEdgeStyle;rounded=0;orthogonalLoop=1;jettySize=auto;html=1;" edge="1" parent="1" source="iJkTXu9Yfgoa_Q7Wtm8Q-9" target="iJkTXu9Yfgoa_Q7Wtm8Q-9">
          <mxGeometry relative="1" as="geometry" />
        </mxCell>
        <mxCell id="iJkTXu9Yfgoa_Q7Wtm8Q-29" style="edgeStyle=orthogonalEdgeStyle;rounded=0;orthogonalLoop=1;jettySize=auto;html=1;entryX=0.5;entryY=0;entryDx=0;entryDy=0;" edge="1" parent="1" source="iJkTXu9Yfgoa_Q7Wtm8Q-21" target="iJkTXu9Yfgoa_Q7Wtm8Q-28">
          <mxGeometry relative="1" as="geometry" />
        </mxCell>
        <mxCell id="iJkTXu9Yfgoa_Q7Wtm8Q-21" value="is guess to low&amp;nbsp;" style="rhombus;whiteSpace=wrap;html=1;" vertex="1" parent="1">
          <mxGeometry x="90" y="690" width="80" height="80" as="geometry" />
        </mxCell>
        <mxCell id="iJkTXu9Yfgoa_Q7Wtm8Q-30" style="rounded=0;orthogonalLoop=1;jettySize=auto;html=1;edgeStyle=orthogonalEdgeStyle;" edge="1" parent="1" source="iJkTXu9Yfgoa_Q7Wtm8Q-25">
          <mxGeometry relative="1" as="geometry">
            <mxPoint x="-50" y="490" as="targetPoint" />
          </mxGeometry>
        </mxCell>
        <mxCell id="iJkTXu9Yfgoa_Q7Wtm8Q-25" value="Too High" style="whiteSpace=wrap;html=1;" vertex="1" parent="1">
          <mxGeometry x="-20" y="860" width="120" height="60" as="geometry" />
        </mxCell>
        <mxCell id="iJkTXu9Yfgoa_Q7Wtm8Q-32" style="edgeStyle=orthogonalEdgeStyle;rounded=0;orthogonalLoop=1;jettySize=auto;html=1;" edge="1" parent="1" source="iJkTXu9Yfgoa_Q7Wtm8Q-28">
          <mxGeometry relative="1" as="geometry">
            <mxPoint x="360" y="480" as="targetPoint" />
          </mxGeometry>
        </mxCell>
        <mxCell id="iJkTXu9Yfgoa_Q7Wtm8Q-28" value="Too LoW&amp;nbsp;" style="rounded=0;whiteSpace=wrap;html=1;" vertex="1" parent="1">
          <mxGeometry x="130" y="860" width="120" height="60" as="geometry" />
        </mxCell>
        <mxCell id="iJkTXu9Yfgoa_Q7Wtm8Q-35" value="" style="edgeStyle=none;orthogonalLoop=1;jettySize=auto;html=1;rounded=0;" edge="1" parent="1">
          <mxGeometry width="80" relative="1" as="geometry">
            <mxPoint x="360" y="480" as="sourcePoint" />
            <mxPoint x="170" y="479.38" as="targetPoint" />
            <Array as="points" />
          </mxGeometry>
        </mxCell>
        <mxCell id="iJkTXu9Yfgoa_Q7Wtm8Q-36" value="" style="edgeStyle=none;orthogonalLoop=1;jettySize=auto;html=1;rounded=0;" edge="1" parent="1">
          <mxGeometry width="80" relative="1" as="geometry">
            <mxPoint x="-50" y="490" as="sourcePoint" />
            <mxPoint x="30" y="490" as="targetPoint" />
            <Array as="points" />
          </mxGeometry>
        </mxCell>
      </root>
    </mxGraphModel>
  </diagram>
</mxfile>
